<mxfile host="app.diagrams.net" modified="2022-08-09T01:35:35.224Z" agent="5.0 (Windows NT 10.0; Win64; x64) AppleWebKit/537.36 (KHTML, like Gecko) Chrome/103.0.0.0 Safari/537.36" etag="bpFurvOYRwzrEJXsBlKM" version="20.1.4" type="github">
  <diagram name="Page-1" id="03018318-947c-dd8e-b7a3-06fadd420f32">
    <mxGraphModel dx="1220" dy="1097" grid="1" gridSize="10" guides="1" tooltips="1" connect="1" arrows="1" fold="1" page="1" pageScale="1" pageWidth="1100" pageHeight="850" background="none" math="0" shadow="0">
      <root>
        <mxCell id="0" />
        <mxCell id="1" parent="0" />
        <mxCell id="B_DF7JoEMORR6xMrLL9S-1" value="" style="whiteSpace=wrap;html=1;aspect=fixed;" parent="1" vertex="1">
          <mxGeometry x="70" y="40" width="720" height="720" as="geometry" />
        </mxCell>
        <mxCell id="B_DF7JoEMORR6xMrLL9S-2" value="" style="rounded=1;whiteSpace=wrap;html=1;" parent="1" vertex="1">
          <mxGeometry x="70" y="40" width="720" height="100" as="geometry" />
        </mxCell>
        <mxCell id="B_DF7JoEMORR6xMrLL9S-3" value="" style="rounded=1;whiteSpace=wrap;html=1;" parent="1" vertex="1">
          <mxGeometry x="130" y="60" width="120" height="60" as="geometry" />
        </mxCell>
        <mxCell id="B_DF7JoEMORR6xMrLL9S-4" value="" style="rounded=1;whiteSpace=wrap;html=1;" parent="1" vertex="1">
          <mxGeometry x="380" y="60" width="120" height="60" as="geometry" />
        </mxCell>
        <mxCell id="B_DF7JoEMORR6xMrLL9S-5" value="" style="rounded=1;whiteSpace=wrap;html=1;" parent="1" vertex="1">
          <mxGeometry x="610" y="60" width="120" height="60" as="geometry" />
        </mxCell>
        <mxCell id="B_DF7JoEMORR6xMrLL9S-7" value="APP 1" style="text;html=1;strokeColor=none;fillColor=none;align=center;verticalAlign=middle;whiteSpace=wrap;rounded=0;fontStyle=2" parent="1" vertex="1">
          <mxGeometry x="160" y="75" width="60" height="30" as="geometry" />
        </mxCell>
        <mxCell id="B_DF7JoEMORR6xMrLL9S-8" value="APP 2" style="text;html=1;strokeColor=none;fillColor=none;align=center;verticalAlign=middle;whiteSpace=wrap;rounded=0;fontStyle=2" parent="1" vertex="1">
          <mxGeometry x="410" y="75" width="60" height="30" as="geometry" />
        </mxCell>
        <mxCell id="B_DF7JoEMORR6xMrLL9S-9" value="APP 3" style="text;html=1;strokeColor=none;fillColor=none;align=center;verticalAlign=middle;whiteSpace=wrap;rounded=0;fontStyle=2" parent="1" vertex="1">
          <mxGeometry x="640" y="75" width="60" height="30" as="geometry" />
        </mxCell>
        <mxCell id="B_DF7JoEMORR6xMrLL9S-11" value="Coty Scott&#39;s Capstone Project" style="text;html=1;strokeColor=none;fillColor=none;align=center;verticalAlign=middle;whiteSpace=wrap;rounded=0;fontSize=37;fontStyle=5" parent="1" vertex="1">
          <mxGeometry x="70" y="250" width="720" height="220" as="geometry" />
        </mxCell>
        <mxCell id="B_DF7JoEMORR6xMrLL9S-12" value="APP" style="swimlane;fontSize=37;startSize=80;" parent="1" vertex="1">
          <mxGeometry x="70" y="900" width="730" height="500" as="geometry" />
        </mxCell>
        <mxCell id="B_DF7JoEMORR6xMrLL9S-13" value="APP opens as a modal&amp;nbsp;" style="text;html=1;align=center;verticalAlign=middle;resizable=0;points=[];autosize=1;strokeColor=none;fillColor=none;fontSize=37;" parent="1" vertex="1">
          <mxGeometry x="225" y="1160" width="410" height="60" as="geometry" />
        </mxCell>
      </root>
    </mxGraphModel>
  </diagram>
</mxfile>
